<?xml version="1.0" encoding="iso-8859-1"?>
<!-- Generator: Adobe Illustrator 19.0.0, SVG Export Plug-In . SVG Version: 6.00 Build 0)  -->
<svg version="1.1" id="Layer_1" xmlns="http://www.w3.org/2000/svg" xmlns:xlink="http://www.w3.org/1999/xlink" x="0px" y="0px"
	 viewBox="0 0 488.944 488.944" style="enable-background:new 0 0 488.944 488.944;" xml:space="preserve">
<g>
	<path style="fill:#9BC9FF;" d="M283.46,161.422V33.146c-35.366,0-64.138,28.772-64.138,64.138S248.095,161.422,283.46,161.422z"/>
	<path style="fill:#57A4FF;" d="M347.598,97.284c0-35.366-28.772-64.138-64.138-64.138v128.276
		C318.826,161.422,347.598,132.65,347.598,97.284z"/>
	<path style="fill:#9BC9FF;" d="M250.923,268.524c24.677-29.818,61.953-48.848,103.591-48.848c3.913,0,7.784,0.178,11.613,0.507
		c-18.498-27.252-49.194-43.761-82.667-43.761c-28.62,0-55.208,12.072-73.881,32.603
		C228.525,224.349,243.054,244.926,250.923,268.524z"/>
	<path style="fill:#005ECE;" d="M128.751,160.409v-160c-44.112,0-80,35.888-80,80S84.638,160.409,128.751,160.409z"/>
	<path style="fill:#003F8A;" d="M208.751,80.409c0-44.112-35.888-80-80-80v160C172.863,160.409,208.751,124.522,208.751,80.409z"/>
	<path style="fill:#003F8A;" d="M250.923,268.524c-7.87-23.598-22.398-44.174-41.344-59.498
		c-22.114-17.886-50.24-28.616-80.829-28.616v148.75h93.666C226.7,306.421,236.721,285.685,250.923,268.524z"/>
	<path style="fill:#005ECE;" d="M0,309.159v20h128.75v-148.75C57.76,180.409,0,238.169,0,309.159z"/>
	<path style="fill:#FFDA44;" d="M334.515,415.721v-41.616h-41.616v-40h41.616V292.49h20v-72.814
		c-41.638,0-78.914,19.03-103.591,48.848c-14.202,17.161-24.223,37.898-28.508,60.635c-1.524,8.087-2.33,16.424-2.33,24.946
		c0,74.125,60.305,134.43,134.429,134.43v-72.814H334.515z"/>
	<path style="fill:#FCC324;" d="M366.127,220.183c-3.829-0.329-7.7-0.507-11.613-0.507v72.814h20v41.616h41.616v40h-41.616v41.616
		h-20v72.814c74.125,0,134.43-60.305,134.43-134.43C488.944,283.893,434.835,226.09,366.127,220.183z"/>
	<polygon style="fill:#2488FF;" points="334.515,334.105 292.899,334.105 292.899,374.105 334.515,374.105 334.515,415.721 
		374.515,415.721 374.515,374.105 416.131,374.105 416.131,334.105 374.515,334.105 374.515,292.49 334.515,292.49 	"/>
</g>
<g>
</g>
<g>
</g>
<g>
</g>
<g>
</g>
<g>
</g>
<g>
</g>
<g>
</g>
<g>
</g>
<g>
</g>
<g>
</g>
<g>
</g>
<g>
</g>
<g>
</g>
<g>
</g>
<g>
</g>
</svg>
