<?xml version="1.0" encoding="iso-8859-1"?>
<!-- Generator: Adobe Illustrator 19.0.0, SVG Export Plug-In . SVG Version: 6.00 Build 0)  -->
<svg version="1.1" id="Layer_1" xmlns="http://www.w3.org/2000/svg" xmlns:xlink="http://www.w3.org/1999/xlink" x="0px" y="0px"
	 viewBox="0 0 512 512" style="enable-background:new 0 0 512 512;" xml:space="preserve">
<circle style="fill:#DB2B42;" cx="256" cy="256" r="256"/>
<path style="fill:#2D2D2D;" d="M68,352.664V125.008c0-4.04,3.456-7.344,7.672-7.344h360.656c4.224,0,7.672,3.304,7.672,7.344
	v227.656H68z"/>
<path style="fill:#E0E0E0;" d="M444,352.664V384c0,4.312-3.456,7.832-7.672,7.832H75.672c-4.216,0-7.672-3.52-7.672-7.832v-31.336
	H444z"/>
<polygon style="fill:#C9C9C9;" points="201.168,446.664 310.832,446.664 303,391.832 209,391.832 "/>
<g style="opacity:0.1;">
	<polygon style="fill:#2D2D2D;" points="303,391.832 209,391.832 204.12,426.008 304.824,404.608 	"/>
</g>
<rect x="173.752" y="446.664" style="fill:#E0E0E0;" width="164.496" height="7.832"/>
<g style="opacity:0.1;">
	<polygon style="fill:#2D2D2D;" points="209,391.832 303,391.832 303.528,395.536 206.56,408.92 	"/>
</g>
<rect x="83.192" y="132.856" style="fill:#8AD5DD;" width="345.6" height="204.616"/>
<path style="fill:#DB2B42;" d="M348,254.328H139.56c-6.144,0-11.168-5.024-11.168-11.168v-59.552
	c0-6.144,5.024-11.168,11.168-11.168H348c6.144,0,11.168,5.024,11.168,11.168v59.552C359.168,249.304,354.144,254.328,348,254.328z"
	/>
<g>
	<path style="fill:#FFFFFF;" d="M186.368,233.712l-13.296-40.728h5.68l6.344,20.064c1.752,5.504,3.264,10.456,4.352,15.224h0.12
		c1.152-4.712,2.84-9.848,4.656-15.168l6.888-20.128h5.616l-14.56,40.728h-5.8V233.712z"/>
	<path style="fill:#FFFFFF;" d="M215.92,196.256c0.056,1.816-1.272,3.256-3.392,3.256c-1.864,0-3.192-1.448-3.192-3.256
		c0-1.872,1.384-3.328,3.32-3.328C214.64,192.928,215.92,194.376,215.92,196.256z M209.992,233.712v-29.24h5.312v29.24H209.992z"/>
	<path style="fill:#FFFFFF;" d="M249.392,190.816v35.344c0,2.6,0.056,5.56,0.24,7.552h-4.784l-0.232-5.08h-0.128
		c-1.632,3.264-5.192,5.744-9.968,5.744c-7.072,0-12.504-5.984-12.504-14.864c-0.064-9.728,5.984-15.712,13.112-15.712
		c4.48,0,7.496,2.12,8.824,4.48h0.128v-17.464H249.392z M244.072,216.368c0-0.664-0.064-1.568-0.24-2.232
		c-0.792-3.384-3.688-6.168-7.672-6.168c-5.504,0-8.768,4.832-8.768,11.296c0,5.92,2.904,10.824,8.64,10.824
		c3.568,0,6.832-2.36,7.8-6.344c0.176-0.728,0.24-1.456,0.24-2.296V216.368z"/>
	<path style="fill:#FFFFFF;" d="M261.176,220.056c0.12,7.184,4.712,10.152,10.024,10.152c3.816,0,6.112-0.664,8.104-1.504
		l0.904,3.808c-1.872,0.848-5.08,1.816-9.728,1.816c-9.008,0-14.384-5.92-14.384-14.744s5.192-15.776,13.72-15.776
		c9.544,0,12.08,8.408,12.08,13.784c0,1.088-0.12,1.928-0.176,2.48h-20.544V220.056z M276.76,216.256
		c0.064-3.384-1.392-8.64-7.376-8.64c-5.376,0-7.736,4.952-8.16,8.64H276.76z"/>
	<path style="fill:#FFFFFF;" d="M314.944,218.848c0,10.824-7.496,15.528-14.56,15.528c-7.912,0-14.016-5.8-14.016-15.048
		c0-9.792,6.408-15.528,14.496-15.528C309.272,203.8,314.944,209.912,314.944,218.848z M291.744,219.152
		c0,6.408,3.688,11.24,8.88,11.24c5.08,0,8.88-4.776,8.88-11.36c0-4.96-2.48-11.24-8.76-11.24
		C294.464,207.792,291.744,213.592,291.744,219.152z"/>
</g>
<polygon style="fill:#2D2D2D;" points="385.224,302.272 352.68,269.728 366.6,255.816 315.224,246.888 324.152,298.256 
	338.768,283.648 371.312,316.184 "/>
<g>
</g>
<g>
</g>
<g>
</g>
<g>
</g>
<g>
</g>
<g>
</g>
<g>
</g>
<g>
</g>
<g>
</g>
<g>
</g>
<g>
</g>
<g>
</g>
<g>
</g>
<g>
</g>
<g>
</g>
</svg>
